# xmcd
#
# Track frame offsets: 
#        150
#        18814
#        33870
#        47632
#        61886
#        74767
#        88096
#        97936
#        110152
#        122540
#        142530
#        157366
#        171430
#
# Disc length: 2646 seconds
#
# Revision: 0
# Processed by: cddbd v1.5.2PL0 Copyright (c) Steve Scherf et al.
# Submitted via: ExactAudioCopy v1.3
#
DISCID=ac0a540d
DTITLE=Steven Troch Band - Rhymes For Mellow Minds
DYEAR=2018
DGENRE=Blues
TTITLE0=Short End
TTITLE1=Bad Taste
TTITLE2=Going To Dogobah
TTITLE3=Troubled One
TTITLE4=Long Long Beard
TTITLE5=White line Express
TTITLE6=Rabbit Foot Trail
TTITLE7=15 Minutes
TTITLE8=Mister Jones
TTITLE9=Vertigo
TTITLE10=Bedroom Eyes
TTITLE11=Rain Rain
TTITLE12=Walk Away
EXTD=
EXTT0=
EXTT1=
EXTT2=
EXTT3=
EXTT4=
EXTT5=
EXTT6=
EXTT7=
EXTT8=
EXTT9=
EXTT10=
EXTT11=
EXTT12=
PLAYORDER=
